HIERARCHY
ROOT Root
{
  OFFSET 0.0 0.0 0.0
  CHANNELS 6 Xposition Yposition Zposition Zrotation Yrotation Xrotation
  JOINT Hips
  {
    OFFSET 0.0 100.0 0.0
    CHANNELS 6 Xposition Yposition Zposition Zrotation Yrotation Xrotation
    JOINT Spine1
    {
      OFFSET 5.003913 -0.037094 -0.013727
      CHANNELS 3 Zrotation Yrotation Xrotation
      JOINT Spine2
      {
        OFFSET 7.125363 -1e-06 0.0
        CHANNELS 3 Zrotation Yrotation Xrotation
        JOINT Chest
        {
          OFFSET 7.594027 1e-06 0.0
          CHANNELS 3 Zrotation Yrotation Xrotation
          JOINT Neck1
          {
            OFFSET 26.313086 -0.460272 -0.181672
            CHANNELS 3 Zrotation Yrotation Xrotation
            JOINT Neck2
            {
              OFFSET 8.045911 0.0 0.0
              CHANNELS 3 Zrotation Yrotation Xrotation
              JOINT Head
              {
                OFFSET 6.432774 0.0 0.0
                CHANNELS 3 Zrotation Yrotation Xrotation
                JOINT HeadEnd
                {
                  OFFSET 16.169773 0.06451 0.00362
                  CHANNELS 3 Zrotation Yrotation Xrotation
                }
                JOINT Jaw
                {
                  OFFSET 0.108741 3.12938 0.002639
                  CHANNELS 3 Zrotation Yrotation Xrotation
                }
                JOINT LeftEye
                {
                  OFFSET 4.45173 8.166359 3.206392
                  CHANNELS 3 Zrotation Yrotation Xrotation
                }
                JOINT RightEye
                {
                  OFFSET 4.436895 8.135758 -3.222429
                  CHANNELS 3 Zrotation Yrotation Xrotation
                }
              }
            }
          }
          JOINT LeftShoulder
          {
            OFFSET 23.218927 5.195579 1.621656
            CHANNELS 3 Zrotation Yrotation Xrotation
            JOINT LeftArm
            {
              OFFSET 15.902118 2e-06 -2e-06
              CHANNELS 3 Zrotation Yrotation Xrotation
              JOINT LeftForeArm
              {
                OFFSET 28.739307 0.0 -1e-06
                CHANNELS 3 Zrotation Yrotation Xrotation
                JOINT LeftHand
                {
                  OFFSET 27.093981 -4e-06 0.0
                  CHANNELS 3 Zrotation Yrotation Xrotation
                  JOINT LeftHandThumb1
                  {
                    OFFSET 2.276781 3.380274 0.83384
                    CHANNELS 3 Zrotation Yrotation Xrotation
                    JOINT LeftHandThumb2
                    {
                      OFFSET 4.705309 -1e-06 -1e-06
                      CHANNELS 3 Zrotation Yrotation Xrotation
                      JOINT LeftHandThumb3
                      {
                        OFFSET 2.798515 0.0 3e-06
                        CHANNELS 3 Zrotation Yrotation Xrotation
                        JOINT LeftHandThumbEnd
                        {
                          OFFSET 3.180793 4e-06 -4e-06
                          CHANNELS 3 Zrotation Yrotation Xrotation
                        }
                      }
                    }
                  }
                  JOINT LeftHandIndex1
                  {
                    OFFSET 3.247786 2.352677 0.137192
                    CHANNELS 3 Zrotation Yrotation Xrotation
                    JOINT LeftHandIndex2
                    {
                      OFFSET 6.367095 1e-06 0.0
                      CHANNELS 3 Zrotation Yrotation Xrotation
                      JOINT LeftHandIndex3
                      {
                        OFFSET 3.662364 0.0 0.0
                        CHANNELS 3 Zrotation Yrotation Xrotation
                        JOINT LeftHandIndex4
                        {
                          OFFSET 2.329242 4e-06 -4e-06
                          CHANNELS 3 Zrotation Yrotation Xrotation
                          JOINT LeftHandIndexEnd
                          {
                            OFFSET 2.767823 1e-06 0.0
                            CHANNELS 3 Zrotation Yrotation Xrotation
                          }
                        }
                      }
                    }
                  }
                  JOINT LeftHandMiddle1
                  {
                    OFFSET 3.163612 0.945023 -0.406112
                    CHANNELS 3 Zrotation Yrotation Xrotation
                    JOINT LeftHandMiddle2
                    {
                      OFFSET 6.276789 3e-06 0.0
                      CHANNELS 3 Zrotation Yrotation Xrotation
                      JOINT LeftHandMiddle3
                      {
                        OFFSET 4.35652 -1e-06 4e-06
                        CHANNELS 3 Zrotation Yrotation Xrotation
                        JOINT LeftHandMiddle4
                        {
                          OFFSET 2.996877 0.0 8e-06
                          CHANNELS 3 Zrotation Yrotation Xrotation
                          JOINT LeftHandMiddleEnd
                          {
                            OFFSET 2.323256 3e-06 -4e-06
                            CHANNELS 3 Zrotation Yrotation Xrotation
                          }
                        }
                      }
                    }
                  }
                  JOINT LeftHandRing1
                  {
                    OFFSET 2.882606 -0.309162 0.107445
                    CHANNELS 3 Zrotation Yrotation Xrotation
                    JOINT LeftHandRing2
                    {
                      OFFSET 6.033198 0.0 4e-06
                      CHANNELS 3 Zrotation Yrotation Xrotation
                      JOINT LeftHandRing3
                      {
                        OFFSET 4.350578 3e-06 0.0
                        CHANNELS 3 Zrotation Yrotation Xrotation
                        JOINT LeftHandRing4
                        {
                          OFFSET 2.651321 2e-06 -7e-06
                          CHANNELS 3 Zrotation Yrotation Xrotation
                          JOINT LeftHandRingEnd
                          {
                            OFFSET 1.937663 1e-06 -4e-06
                            CHANNELS 3 Zrotation Yrotation Xrotation
                          }
                        }
                      }
                    }
                  }
                  JOINT LeftHandPinky1
                  {
                    OFFSET 2.865315 -1.525436 0.575687
                    CHANNELS 3 Zrotation Yrotation Xrotation
                    JOINT LeftHandPinky2
                    {
                      OFFSET 5.54936 1e-06 -8e-06
                      CHANNELS 3 Zrotation Yrotation Xrotation
                      JOINT LeftHandPinky3
                      {
                        OFFSET 3.070974 0.0 -4e-06
                        CHANNELS 3 Zrotation Yrotation Xrotation
                        JOINT LeftHandPinky4
                        {
                          OFFSET 1.549672 1e-06 0.0
                          CHANNELS 3 Zrotation Yrotation Xrotation
                          JOINT LeftHandPinkyEnd
                          {
                            OFFSET 1.952123 0.0 0.0
                            CHANNELS 3 Zrotation Yrotation Xrotation
                          }
                        }
                      }
                    }
                  }
                }
              }
            }
          }
          JOINT RightShoulder
          {
            OFFSET 23.161716 5.296122 -1.380114
            CHANNELS 3 Zrotation Yrotation Xrotation
            JOINT RightArm
            {
              OFFSET -16.027195 -2e-06 1.1e-05
              CHANNELS 3 Zrotation Yrotation Xrotation
              JOINT RightForeArm
              {
                OFFSET -28.736639 4e-06 2e-06
                CHANNELS 3 Zrotation Yrotation Xrotation
                JOINT RightHand
                {
                  OFFSET -27.133619 6e-06 0.0
                  CHANNELS 3 Zrotation Yrotation Xrotation
                  JOINT RightHandThumb1
                  {
                    OFFSET -2.274328 -3.351035 -0.83067
                    CHANNELS 3 Zrotation Yrotation Xrotation
                    JOINT RightHandThumb2
                    {
                      OFFSET -4.703594 -3e-06 2e-06
                      CHANNELS 3 Zrotation Yrotation Xrotation
                      JOINT RightHandThumb3
                      {
                        OFFSET -2.794935 -4e-06 -3e-06
                        CHANNELS 3 Zrotation Yrotation Xrotation
                        JOINT RightHandThumbEnd
                        {
                          OFFSET -3.183852 4e-06 1e-06
                          CHANNELS 3 Zrotation Yrotation Xrotation
                        }
                      }
                    }
                  }
                  JOINT RightHandIndex1
                  {
                    OFFSET -3.253496 -2.33755 -0.127667
                    CHANNELS 3 Zrotation Yrotation Xrotation
                    JOINT RightHandIndex2
                    {
                      OFFSET -6.344434 0.0 0.0
                      CHANNELS 3 Zrotation Yrotation Xrotation
                      JOINT RightHandIndex3
                      {
                        OFFSET -3.654871 0.0 -8e-06
                        CHANNELS 3 Zrotation Yrotation Xrotation
                        JOINT RightHandIndex4
                        {
                          OFFSET -2.327586 -1e-06 0.0
                          CHANNELS 3 Zrotation Yrotation Xrotation
                          JOINT RightHandIndexEnd
                          {
                            OFFSET -2.770001 3e-06 8e-06
                            CHANNELS 3 Zrotation Yrotation Xrotation
                          }
                        }
                      }
                    }
                  }
                  JOINT RightHandMiddle1
                  {
                    OFFSET -3.168223 -0.944764 0.411762
                    CHANNELS 3 Zrotation Yrotation Xrotation
                    JOINT RightHandMiddle2
                    {
                      OFFSET -6.266691 -1e-06 -4e-06
                      CHANNELS 3 Zrotation Yrotation Xrotation
                      JOINT RightHandMiddle3
                      {
                        OFFSET -4.348901 0.0 0.0
                        CHANNELS 3 Zrotation Yrotation Xrotation
                        JOINT RightHandMiddle4
                        {
                          OFFSET -3.00024 2e-06 -4e-06
                          CHANNELS 3 Zrotation Yrotation Xrotation
                          JOINT RightHandMiddleEnd
                          {
                            OFFSET -2.321477 -4e-06 -4e-06
                            CHANNELS 3 Zrotation Yrotation Xrotation
                          }
                        }
                      }
                    }
                  }
                  JOINT RightHandRing1
                  {
                    OFFSET -2.885654 0.293261 -0.119232
                    CHANNELS 3 Zrotation Yrotation Xrotation
                    JOINT RightHandRing2
                    {
                      OFFSET -6.032835 -1e-06 -4e-06
                      CHANNELS 3 Zrotation Yrotation Xrotation
                      JOINT RightHandRing3
                      {
                        OFFSET -4.33881 0.0 -4e-06
                        CHANNELS 3 Zrotation Yrotation Xrotation
                        JOINT RightHandRing4
                        {
                          OFFSET -2.654903 -4e-06 -4e-06
                          CHANNELS 3 Zrotation Yrotation Xrotation
                          JOINT RightHandRingEnd
                          {
                            OFFSET -1.935122 0.0 4e-06
                            CHANNELS 3 Zrotation Yrotation Xrotation
                          }
                        }
                      }
                    }
                  }
                  JOINT RightHandPinky1
                  {
                    OFFSET -2.866241 1.503904 -0.60527
                    CHANNELS 3 Zrotation Yrotation Xrotation
                    JOINT RightHandPinky2
                    {
                      OFFSET -5.553177 -2e-06 0.0
                      CHANNELS 3 Zrotation Yrotation Xrotation
                      JOINT RightHandPinky3
                      {
                        OFFSET -3.062664 -1e-06 -4e-06
                        CHANNELS 3 Zrotation Yrotation Xrotation
                        JOINT RightHandPinky4
                        {
                          OFFSET -1.546529 2e-06 4e-06
                          CHANNELS 3 Zrotation Yrotation Xrotation
                          JOINT RightHandPinkyEnd
                          {
                            OFFSET -1.952341 0.0 -4e-06
                            CHANNELS 3 Zrotation Yrotation Xrotation
                          }
                        }
                      }
                    }
                  }
                }
              }
            }
          }
        }
      }
    }
    JOINT LeftLeg
    {
      OFFSET -8.443107 2.567604 10.043214
      CHANNELS 3 Zrotation Yrotation Xrotation
      JOINT LeftShin
      {
        OFFSET 43.229198 1e-06 -1e-06
        CHANNELS 3 Zrotation Yrotation Xrotation
        JOINT LeftFoot
        {
          OFFSET 42.298611 1e-06 1e-06
          CHANNELS 3 Zrotation Yrotation Xrotation
          JOINT LeftToeBase
          {
            OFFSET 14.165858 1e-06 0.0
            CHANNELS 3 Zrotation Yrotation Xrotation
            JOINT LeftToeEnd
            {
              OFFSET 6.7141 -0.234461 0.0
              CHANNELS 3 Zrotation Yrotation Xrotation
            }
          }
        }
      }
    }
    JOINT RightLeg
    {
      OFFSET -8.303923 2.592729 -10.047278
      CHANNELS 3 Zrotation Yrotation Xrotation
      JOINT RightShin
      {
        OFFSET -43.369682 0.0 1e-06
        CHANNELS 3 Zrotation Yrotation Xrotation
        JOINT RightFoot
        {
          OFFSET -42.260784 4e-06 2e-06
          CHANNELS 3 Zrotation Yrotation Xrotation
          JOINT RightToeBase
          {
            OFFSET -14.222245 -2e-06 -1e-06
            CHANNELS 3 Zrotation Yrotation Xrotation
            JOINT RightToeEnd
            {
              OFFSET -6.660062 0.232574 -2e-06
              CHANNELS 3 Zrotation Yrotation Xrotation
            }
          }
        }
      }
    }
  }
}
MOTION
Frames: 4
Frame Time: 0.03333333333333333
0.0 0.0 0.0 0.0 -0.0 0.0 -1.079873 99.544044 4.742314 92.607452 1.100133 89.278099 -0.430343 -1.191931 0.028011 -11.008249 -0.672058 0.956152 12.348848 -2.665178 -1.463172 14.686307 1.235347 3.064687 -2.106512 0.103287 1.479878 -22.243532 1.199386 0.854164 6e-06 -0.0 0.0 -0.066664 -0.014306 -0.025619 -0.032246 0.172413 -0.031952 -0.006843 -0.207933 -0.02087 -12.819262 -83.913177 17.378969 68.490295 12.303752 -17.941416 23.188648 -0.130898 -0.493004 -10.105587 9.599164 19.116129 17.636625 -26.322687 52.410877 -19.466631 -14.395585 29.410259 1e-06 -8.774818 -4e-06 17.176683 -18.719707 6.13008 -0.609772 -1.795653 -3.889313 -4.807084 -11.046816 -2.937824 -4e-06 -20.976063 2.4e-05 -5.020003 -25.033657 -4.031844 5e-06 -3e-06 1e-06 -10.634517 -5.686965 -3.56556 10.573263 -17.922966 -3.11388 -1e-06 -13.821243 1e-05 -0.501804 -31.181662 -4.026989 -12.788177 -60.578964 8.623097 -13.982693 -7.150191 -2.875012 13.772718 -8.401497 -3.21823 0.347716 -34.211655 0.771679 -0.963033 -17.733459 2.621032 0.0 -2e-06 0.0 -17.346401 -20.095203 -4.201723 21.757545 -1.638373 3.866413 1e-06 -6.338839 2e-06 -1.697599 -22.591846 -6.193998 1e-06 -4e-06 -1e-06 -172.886337 -81.514854 -2.365681 75.604309 8.541434 -17.354324 40.118378 4.207505 2.153656 -6.874567 26.720293 11.291503 22.182009 -20.375767 49.933159 -16.701887 -16.74353 28.476545 -9e-06 -12.690612 1.6e-05 17.362398 -16.893368 2.263032 -0.105913 -1.513864 -4.275878 -5.039035 -5.61289 -2.953551 8e-06 -11.020573 -1.9e-05 -6.111293 -15.895451 -3.840487 -0.0 0.0 0.0 -10.283353 -5.680301 -4.341819 11.028296 -11.302429 -2.372661 -1.384256 -14.238647 -6.320144 -0.62539 -26.924381 -3.827668 -5.255125 -51.033524 -2.622254 -13.708506 -7.363487 -3.720916 18.141157 -14.052773 -3.242717 2.3e-05 -18.78735 -4.2e-05 -0.4297 -8.456096 2.555492 0.0 -1e-06 1e-06 -15.923519 -20.094524 -5.473557 30.419224 -7.190823 1.73588 6e-06 -8.162947 -2.2e-05 -1.861855 -22.861603 -6.168024 1e-06 -3e-06 -1e-06 176.074814 -0.521766 -5.805092 18.347065 -0.31334 0.486263 -79.620674 6.157928 -0.504441 -6.707953 1.398913 2.005248 -0.999998 -0.0 -0.0 -0.549912 -5.467654 -5.886507 13.929489 -0.049431 0.104244 -82.169678 2.136904 -4.086655 -5.909942 0.649809 1.668677 -1.000001 0.0 -0.0 
0.0 0.0 0.0 0.0 -0.0 0.0 -1.128433 99.627884 4.375783 92.545891 0.688252 88.988991 0.011688 -1.267494 0.026993 -10.856311 -0.695124 0.875383 12.322093 -2.616841 -1.484633 15.204462 1.208621 3.038853 -2.100441 0.006684 1.448195 -22.498165 1.47596 0.837276 6e-06 0.0 0.0 -0.052107 -0.013181 -0.069354 0.016271 0.160836 -0.075289 0.034657 -0.194012 -0.067775 -6.04101 -83.231575 10.688248 66.771812 11.555962 -20.135712 24.159657 0.148832 -0.349908 -10.255311 10.359702 18.135996 17.636589 -26.322664 52.411114 -19.466583 -14.39558 29.410313 -2e-06 -8.7748 -3e-06 16.946703 -18.731394 6.329959 -0.609776 -1.795649 -3.88932 -4.807076 -11.046762 -2.937843 1.3e-05 -20.975929 6e-06 -5.019945 -25.033463 -4.031871 6e-06 1e-06 1e-06 -10.634514 -5.686953 -3.565583 10.573248 -17.922878 -3.113887 6e-06 -13.821157 9e-06 -0.501771 -31.181402 -4.026984 -12.905411 -60.489475 8.837196 -13.982687 -7.150173 -2.875039 13.772696 -8.40146 -3.218231 0.347734 -34.211403 0.771678 -0.963033 -17.733322 2.62104 0.0 2e-06 -0.0 -17.346378 -20.09515 -4.201779 21.757509 -1.638373 3.86642 3e-06 -6.338802 6e-06 -1.697575 -22.591686 -6.193991 1e-06 -2e-06 -2e-06 -175.183441 -80.901306 -0.275125 73.649399 7.602 -19.958269 41.811028 3.637169 1.909526 -6.300698 26.926727 11.964308 22.182226 -20.376011 49.93343 -16.701784 -16.743542 28.476545 -7e-06 -12.690625 -1.8e-05 17.5058 -16.909534 2.280267 -0.105924 -1.513849 -4.275887 -5.039052 -5.61287 -2.953564 1e-05 -11.020541 1.5e-05 -6.111304 -15.895377 -3.840489 -0.0 -1e-06 0.0 -10.283389 -5.680279 -4.341853 11.028309 -11.302414 -2.372608 -1.384273 -14.238587 -6.320123 -0.625442 -26.924267 -3.827563 -5.250591 -50.963898 -2.495046 -13.708543 -7.363463 -3.720959 18.141169 -14.052753 -3.242637 4e-06 -18.787304 3.7e-05 -0.429715 -8.456081 2.555543 0.0 -1e-06 1e-06 -15.923556 -20.094475 -5.473603 30.419239 -7.190853 1.73597 4e-06 -8.162945 1.9e-05 -1.861909 -22.861547 -6.167914 -1e-06 -3e-06 -1e-06 175.317352 -0.538532 -5.856689 18.292124 -0.312675 0.470411 -79.33419 5.771164 -0.396133 -6.598771 1.402366 2.001831 -0.999998 -0.0 0.0 -1.463712 -5.367539 -5.270209 13.947365 -0.045521 0.119213 -81.748627 2.27035 -3.825145 -6.060574 0.586413 1.655946 -1.000003 0.0 0.0 
0.0 0.0 0.0 0.0 -0.0 0.0 -1.065238 99.686066 3.868838 92.523643 0.116656 88.778366 0.580387 -1.393203 -0.001806 -10.705122 -0.772002 0.696576 12.385136 -2.494545 -1.539775 15.923039 1.212315 2.997742 -2.075027 -0.086058 1.451295 -22.889048 1.600454 0.740818 6e-06 0.0 0.0 -0.034461 -0.007852 -0.108318 0.043411 0.152223 -0.120646 0.045461 -0.173452 -0.1 -2.399167 -82.211113 7.149709 64.654228 9.876232 -23.260448 26.169674 0.149862 -0.216292 -10.50556 11.616893 16.911945 17.636631 -26.322725 52.411629 -19.466755 -14.395587 29.410641 -4e-06 -8.774841 -7e-06 16.70365 -18.735199 6.452265 -0.609782 -1.79566 -3.889351 -4.807097 -11.046822 -2.937906 4e-05 -20.976053 -6.9e-05 -5.019881 -25.033672 -4.032024 6e-06 0.0 0.0 -10.634551 -5.686987 -3.565632 10.573298 -17.922964 -3.113952 2.4e-05 -13.821233 -3.1e-05 -0.501646 -31.181648 -4.027155 -12.772779 -60.358322 8.76 -13.982735 -7.150218 -2.875091 13.77275 -8.401502 -3.218266 0.347806 -34.211613 0.771569 -0.963005 -17.733435 2.621027 0.0 -0.0 -0.0 -17.346426 -20.095259 -4.201883 21.757587 -1.638382 3.866464 7e-06 -6.338833 -9e-06 -1.697517 -22.591845 -6.194151 0.0 -5e-06 -2e-06 -178.62706 -80.356476 3.008106 71.270737 6.051433 -22.33075 44.006142 2.966661 1.827325 -5.474052 27.504225 12.110894 22.182364 -20.376163 49.933762 -16.701853 -16.743605 28.476738 1e-06 -12.690701 -2.9e-05 17.517942 -16.877485 2.265421 -0.10593 -1.513851 -4.275906 -5.039081 -5.612892 -2.95359 8e-06 -11.020608 1.5e-05 -6.111349 -15.895503 -3.840538 0.0 -0.0 -1e-06 -10.283434 -5.680303 -4.341886 11.02836 -11.302466 -2.372609 -1.38428 -14.238682 -6.320183 -0.62545 -26.924515 -3.827613 -5.069076 -50.61412 -2.571256 -13.708601 -7.363495 -3.720992 18.141254 -14.052822 -3.242638 1e-06 -18.787437 4.6e-05 -0.429722 -8.456158 2.555575 -2e-06 -0.0 0.0 -15.923621 -20.09454 -5.473651 30.419382 -7.190897 1.736006 4e-06 -8.163003 2.5e-05 -1.861923 -22.861767 -6.167974 -2e-06 -4e-06 -1e-06 174.147293 -0.506858 -5.837272 18.433769 -0.289797 0.415003 -79.035851 5.449689 -0.298966 -6.437459 1.412599 2.010437 -0.999999 -0.0 0.0 -2.890189 -5.326283 -4.395796 14.407253 -0.027778 0.078354 -81.295204 2.437606 -3.501617 -6.227732 0.544692 1.643413 -0.999996 -0.0 0.0 
0.0 0.0 0.0 0.0 -0.0 0.0 -0.969222 99.712517 3.162543 92.542999 -0.617536 88.549965 1.269836 -1.524273 -0.074845 -10.507605 -0.870533 0.509262 12.518629 -2.312412 -1.76121 16.917704 1.167014 2.959213 -2.076838 -0.145211 1.402809 -23.43804 1.579172 0.741717 5e-06 0.0 0.0 -0.026171 -0.000148 -0.136668 0.066147 0.154058 -0.144724 0.050344 -0.158662 -0.13009 -2.080816 -80.949158 7.115253 62.128407 7.1149 -26.798256 29.088827 -0.222494 -0.117821 -10.568658 13.046184 14.970412 17.636671 -26.322969 52.411572 -19.466742 -14.395602 29.41061 2e-06 -8.774852 -4e-06 16.302647 -18.712368 6.506563 -0.609782 -1.795659 -3.889347 -4.807104 -11.046886 -2.937872 -1.3e-05 -20.976212 1.4e-05 -5.020001 -25.033875 -4.031913 5e-06 0.0 1e-06 -10.63455 -5.687001 -3.565618 10.573285 -17.923075 -3.113905 -8e-06 -13.821344 1.1e-05 -0.501786 -31.181952 -4.02705 -12.470699 -60.042622 8.452826 -13.982732 -7.150237 -2.875072 13.772747 -8.401546 -3.218248 0.347692 -34.211945 0.771701 -0.963071 -17.733625 2.621072 0.0 1e-06 -0.0 -17.346443 -20.095329 -4.201817 21.757591 -1.638371 3.86646 -2e-06 -6.338884 6e-06 -1.697588 -22.592045 -6.194082 0.0 -3e-06 -2e-06 177.458221 -79.777687 7.004584 68.81723 4.116103 -24.006361 46.066616 2.397686 1.834771 -4.750983 27.942516 11.002979 22.182219 -20.375965 49.933418 -16.701818 -16.743473 28.476549 1e-06 -12.690603 -2.2e-05 17.457315 -16.863716 2.256934 -0.105927 -1.513862 -4.275887 -5.039048 -5.612896 -2.953569 5e-06 -11.020593 3e-06 -6.111305 -15.895473 -3.840497 0.0 0.0 -0.0 -10.283381 -5.680304 -4.341859 11.028292 -11.302458 -2.372615 -1.384272 -14.238667 -6.320148 -0.625442 -26.924429 -3.827622 -4.805611 -50.255596 -2.779069 -13.708535 -7.363501 -3.720963 18.141144 -14.052807 -3.242648 1.3e-05 -18.787395 -0.0 -0.429711 -8.45612 2.555527 0.0 0.0 -0.0 -15.923548 -20.094559 -5.473608 30.419189 -7.190861 1.735973 8e-06 -8.162978 -2e-06 -1.861874 -22.861679 -6.167992 2e-06 -3e-06 -1e-06 172.529755 -0.441565 -5.74934 18.831329 -0.258947 0.381798 -78.598572 4.88566 -0.278075 -6.327754 1.428723 2.031717 -1.000001 0.0 0.0 -4.917391 -5.362713 -3.439983 15.418056 -0.011259 0.039948 -80.803131 2.79207 -3.315629 -6.363601 0.570831 1.642542 -1.000001 0.0 -0.0 
